<mxfile host="app.diagrams.net" modified="2021-12-16T15:16:23.139Z" agent="5.0 (Windows NT 10.0; WOW64) AppleWebKit/537.36 (KHTML, like Gecko) Chrome/80.0.3987.87 Safari/537.36 SE 2.X MetaSr 1.0" etag="FZqItRfPvJ1GDXhH6PaL" version="15.9.6" type="github">
  <diagram id="9tF38RBc4R6KH_2L6xA0" name="Page-1">
    <mxGraphModel dx="2844" dy="1416" grid="1" gridSize="10" guides="1" tooltips="1" connect="1" arrows="1" fold="1" page="1" pageScale="1" pageWidth="827" pageHeight="1169" math="0" shadow="0">
      <root>
        <mxCell id="0" />
        <mxCell id="1" parent="0" />
      </root>
    </mxGraphModel>
  </diagram>
</mxfile>
